# xmcd
#
# Track frame offsets:
# 150
# 14292
# 34650
# 50657
# 70815
#
# Disc length: 1377 seconds
#
#
# Revision: 0
# Processed by: cddbd v1.5.2PL0 Copyright (c) Steve Scherf et al.
# Submitted via: FreeRIP 2.945 
#
DISCID=3b055f05
DTITLE=Bambee - Bam Bam Bam
DYEAR=1998
DGENRE=Eurodance
TTITLE0=Bam Bam Bam (X-Man Radio Mix)
TTITLE1=Bam Bam Bam (X-Man Extended Mix)
TTITLE2=Bam Bam Bam (Two Gee's Radio Mix)
TTITLE3=Bam Bam Bam (Two Gee's Extended Mix)
TTITLE4=Bam Bam Bam (Mindblowers Extended Mix)
EXTD=BEE 002
EXTT0=
EXTT1=
EXTT2=
EXTT3=
EXTT4=
PLAYORDER=
